;Layer: Drill PTH
;EasyEDA v6.4.5, 2020-09-03T12:26:06--7:00
;e5bad7cf5beb4b60abe831444af73797,95dd31e7bbc04d03a1fa04b442bf807f,10
;Gerber Generator version 0.2
M48
METRIC,LZ,000.000
;Holesize 1 = 0.305 METRIC
T01C0.305
;Holesize 2 = 0.966 METRIC
T02C0.966
;Holesize 3 = 1.016 METRIC
T03C1.016
;Holesize 4 = 1.403 METRIC
T04C1.403
%
G05
G90
T01
X+047879Y+035179
X+045593Y+036425
X+041783Y+033147
X+041275Y+036322
X+044196Y+034139
X+014605Y+022582
X+017145Y+023217
X+019304Y+023979
X+026797Y+032234
X+040259Y+027408
X+054737Y+022328
X+023622Y+040743
X+036068Y+040108
X+052324Y+035028
X+054229Y+033377
X+044069Y+036679
X+025400Y+069953
X+026289Y+056999
X+038354Y+036552
X+032512Y+049887
X+028829Y+043029
X+043307Y+028170
X+047244Y+023471
X+036576Y+024233
X+036322Y+029186
T02
X+062074Y+053597G85X+062074Y+053592
X+059534Y+053597G85X+059534Y+053592
X+056994Y+053597G85X+056994Y+053592
X+054454Y+053597G85X+054454Y+053592
X+051914Y+053597G85X+051914Y+053592
X+049374Y+053597G85X+049374Y+053592
X+046834Y+053597G85X+046834Y+053592
X+044294Y+053597G85X+044294Y+053592
X+041754Y+053597G85X+041754Y+053592
X+039214Y+053597G85X+039214Y+053592
X+036674Y+053597G85X+036674Y+053592
X+034134Y+053597G85X+034134Y+053592
X+031594Y+053597G85X+031594Y+053592
X+029054Y+053597G85X+029054Y+053592
X+023974Y+053597G85X+023974Y+053592
X+021434Y+053597G85X+021434Y+053592
X+018894Y+053597G85X+018894Y+053592
X+016354Y+053597G85X+016354Y+053592
X+029054Y+038357G85X+029054Y+038352
X+031594Y+038357G85X+031594Y+038352
X+034134Y+038357G85X+034134Y+038352
X+036674Y+038357G85X+036674Y+038352
X+039214Y+038357G85X+039214Y+038352
X+041754Y+038357G85X+041754Y+038352
X+044294Y+038357G85X+044294Y+038352
X+046834Y+038357G85X+046834Y+038352
X+049374Y+038357G85X+049374Y+038352
X+051914Y+038357G85X+051914Y+038352
X+054454Y+038357G85X+054454Y+038352
X+056994Y+038357G85X+056994Y+038352
X+059534Y+038357G85X+059534Y+038352
X+062074Y+038357G85X+062074Y+038352
X+059534Y+040897G85X+059534Y+040892
X+054454Y+040897G85X+054454Y+040892
X+051914Y+040897G85X+051914Y+040892
X+049374Y+040897G85X+049374Y+040892
X+026514Y+053597G85X+026514Y+053592
X+016354Y+038357G85X+016354Y+038352
X+018894Y+038357G85X+018894Y+038352
X+021434Y+038357G85X+021434Y+038352
X+023974Y+038357G85X+023974Y+038352
X+026514Y+038357G85X+026514Y+038352
X+013814Y+053597G85X+013814Y+053592
X+011274Y+053597G85X+011274Y+053592
X+008734Y+053597G85X+008734Y+053592
X+006194Y+053597G85X+006194Y+053592
X+003654Y+053597G85X+003654Y+053592
X+003654Y+038357G85X+003654Y+038352
X+013814Y+038357G85X+013814Y+038352
X+011274Y+038357G85X+011274Y+038352
X+008734Y+038357G85X+008734Y+038352
X+006194Y+038357G85X+006194Y+038352
T03
X+031115Y+007620
X+031115Y+005080
X+031115Y+002540
X+034544Y+007620
X+034544Y+005080
X+034544Y+002540
X+056769Y+058039
X+059309Y+058039
X+061849Y+058039
T04
X+061722Y+022174
X+061722Y+017195
X+061722Y+032588
X+061722Y+027609
X+061722Y+011760
X+061722Y+006781
X+004064Y+027609
X+004064Y+032588
X+004064Y+017195
X+004064Y+022174
X+004064Y+006781
X+004064Y+011760
M30
