G04 Layer: TopSolderMaskLayer*
G04 EasyEDA v6.4.5, 2020-09-03T12:26:06--7:00*
G04 e5bad7cf5beb4b60abe831444af73797,95dd31e7bbc04d03a1fa04b442bf807f,10*
G04 Gerber Generator version 0.2*
G04 Scale: 100 percent, Rotated: No, Reflected: No *
G04 Dimensions in millimeters *
G04 leading zeros omitted , absolute positions ,3 integer and 3 decimal *
%FSLAX33Y33*%
%MOMM*%
G90*
G71D02*

%ADD39C,1.103198*%
%ADD43C,2.082800*%
%ADD50C,1.676400*%

%LPD*%
G54D39*
G01X29557Y65913D02*
G01X31657Y65913D01*
G01X29557Y64411D02*
G01X31657Y64411D01*
G01X29557Y62913D02*
G01X31657Y62913D01*
G01X34807Y65913D02*
G01X36907Y65913D01*
G01X34807Y64411D02*
G01X36907Y64411D01*
G01X34807Y62913D02*
G01X36907Y62913D01*
G36*
G01X43914Y42908D02*
G01X43914Y44213D01*
G01X45115Y44213D01*
G01X45115Y42908D01*
G01X43914Y42908D01*
G37*
G36*
G01X42514Y42908D02*
G01X42514Y44213D01*
G01X43715Y44213D01*
G01X43715Y42908D01*
G01X42514Y42908D01*
G37*
G36*
G01X36164Y30716D02*
G01X36164Y32021D01*
G01X37365Y32021D01*
G01X37365Y30716D01*
G01X36164Y30716D01*
G37*
G36*
G01X37564Y30716D02*
G01X37564Y32021D01*
G01X38765Y32021D01*
G01X38765Y30716D01*
G01X37564Y30716D01*
G37*
G36*
G01X39593Y30716D02*
G01X39593Y32021D01*
G01X40794Y32021D01*
G01X40794Y30716D01*
G01X39593Y30716D01*
G37*
G36*
G01X40993Y30716D02*
G01X40993Y32021D01*
G01X42194Y32021D01*
G01X42194Y30716D01*
G01X40993Y30716D01*
G37*
G36*
G01X46832Y30843D02*
G01X46832Y32148D01*
G01X48033Y32148D01*
G01X48033Y30843D01*
G01X46832Y30843D01*
G37*
G36*
G01X48232Y30843D02*
G01X48232Y32148D01*
G01X49433Y32148D01*
G01X49433Y30843D01*
G01X48232Y30843D01*
G37*
G36*
G01X44803Y30843D02*
G01X44803Y32148D01*
G01X46004Y32148D01*
G01X46004Y30843D01*
G01X44803Y30843D01*
G37*
G36*
G01X43403Y30843D02*
G01X43403Y32148D01*
G01X44604Y32148D01*
G01X44604Y30843D01*
G01X43403Y30843D01*
G37*
G36*
G01X37772Y34935D02*
G01X37772Y35788D01*
G01X38224Y35788D01*
G01X38224Y34935D01*
G01X37772Y34935D01*
G37*
G36*
G01X38272Y34935D02*
G01X38272Y35788D01*
G01X38724Y35788D01*
G01X38724Y34935D01*
G01X38272Y34935D01*
G37*
G36*
G01X38773Y34935D02*
G01X38773Y35788D01*
G01X39225Y35788D01*
G01X39225Y34935D01*
G01X38773Y34935D01*
G37*
G36*
G01X39273Y34935D02*
G01X39273Y35788D01*
G01X39725Y35788D01*
G01X39725Y34935D01*
G01X39273Y34935D01*
G37*
G36*
G01X39771Y34935D02*
G01X39771Y35788D01*
G01X40225Y35788D01*
G01X40225Y34935D01*
G01X39771Y34935D01*
G37*
G36*
G01X40271Y34935D02*
G01X40271Y35788D01*
G01X40726Y35788D01*
G01X40726Y34935D01*
G01X40271Y34935D01*
G37*
G36*
G01X40772Y34935D02*
G01X40772Y35788D01*
G01X41226Y35788D01*
G01X41226Y34935D01*
G01X40772Y34935D01*
G37*
G36*
G01X40985Y33936D02*
G01X40985Y34389D01*
G01X41838Y34389D01*
G01X41838Y33936D01*
G01X40985Y33936D01*
G37*
G36*
G01X40772Y32537D02*
G01X40772Y33390D01*
G01X41226Y33390D01*
G01X41226Y32537D01*
G01X40772Y32537D01*
G37*
G36*
G01X40271Y32537D02*
G01X40271Y33390D01*
G01X40726Y33390D01*
G01X40726Y32537D01*
G01X40271Y32537D01*
G37*
G36*
G01X39771Y32537D02*
G01X39771Y33390D01*
G01X40225Y33390D01*
G01X40225Y32537D01*
G01X39771Y32537D01*
G37*
G36*
G01X39273Y32537D02*
G01X39273Y33390D01*
G01X39725Y33390D01*
G01X39725Y32537D01*
G01X39273Y32537D01*
G37*
G36*
G01X38773Y32537D02*
G01X38773Y33390D01*
G01X39225Y33390D01*
G01X39225Y32537D01*
G01X38773Y32537D01*
G37*
G36*
G01X38272Y32537D02*
G01X38272Y33390D01*
G01X38724Y33390D01*
G01X38724Y32537D01*
G01X38272Y32537D01*
G37*
G36*
G01X37772Y32537D02*
G01X37772Y33390D01*
G01X38224Y33390D01*
G01X38224Y32537D01*
G01X37772Y32537D01*
G37*
G36*
G01X37155Y33936D02*
G01X37155Y34389D01*
G01X38008Y34389D01*
G01X38008Y33936D01*
G01X37155Y33936D01*
G37*
G54D43*
G01X31115Y7620D03*
G01X31115Y5080D03*
G01X31115Y2540D03*
G01X34544Y7620D03*
G01X34544Y5080D03*
G01X34544Y2540D03*
G01X56769Y58039D03*
G01X59309Y58039D03*
G01X61849Y58039D03*
G36*
G01X29481Y42745D02*
G01X29481Y48948D01*
G01X36184Y48948D01*
G01X36184Y42745D01*
G01X29481Y42745D01*
G37*
G36*
G01X38465Y42646D02*
G01X38465Y44450D01*
G01X41668Y44450D01*
G01X41668Y42646D01*
G01X38465Y42646D01*
G37*
G36*
G01X38458Y47244D02*
G01X38458Y49047D01*
G01X41663Y49047D01*
G01X41663Y47244D01*
G01X38458Y47244D01*
G37*
G36*
G01X5191Y61147D02*
G01X5191Y62550D01*
G01X7396Y62550D01*
G01X7396Y61147D01*
G01X5191Y61147D01*
G37*
G36*
G01X5191Y58648D02*
G01X5191Y60050D01*
G01X7396Y60050D01*
G01X7396Y58648D01*
G01X5191Y58648D01*
G37*
G36*
G01X10891Y63647D02*
G01X10891Y65049D01*
G01X13096Y65049D01*
G01X13096Y63647D01*
G01X10891Y63647D01*
G37*
G36*
G01X10891Y61147D02*
G01X10891Y62550D01*
G01X13096Y62550D01*
G01X13096Y61147D01*
G01X10891Y61147D01*
G37*
G36*
G01X10891Y58648D02*
G01X10891Y60050D01*
G01X13096Y60050D01*
G01X13096Y58648D01*
G01X10891Y58648D01*
G37*
G36*
G01X5191Y63647D02*
G01X5191Y65049D01*
G01X7396Y65049D01*
G01X7396Y63647D01*
G01X5191Y63647D01*
G37*
G36*
G01X23322Y63563D02*
G01X23322Y65214D01*
G01X24683Y65214D01*
G01X24683Y63563D01*
G01X23322Y63563D01*
G37*
G36*
G01X25354Y63563D02*
G01X25354Y65214D01*
G01X26715Y65214D01*
G01X26715Y63563D01*
G01X25354Y63563D01*
G37*
G36*
G01X43914Y47480D02*
G01X43914Y48785D01*
G01X45115Y48785D01*
G01X45115Y47480D01*
G01X43914Y47480D01*
G37*
G36*
G01X42514Y47480D02*
G01X42514Y48785D01*
G01X43715Y48785D01*
G01X43715Y47480D01*
G01X42514Y47480D01*
G37*
G36*
G01X44335Y34510D02*
G01X44335Y35415D01*
G01X44889Y35415D01*
G01X44889Y34510D01*
G01X44335Y34510D01*
G37*
G36*
G01X44985Y34510D02*
G01X44985Y35415D01*
G01X45539Y35415D01*
G01X45539Y34510D01*
G01X44985Y34510D01*
G37*
G36*
G01X45646Y34510D02*
G01X45646Y35415D01*
G01X46200Y35415D01*
G01X46200Y34510D01*
G01X45646Y34510D01*
G37*
G36*
G01X46296Y34510D02*
G01X46296Y35415D01*
G01X46850Y35415D01*
G01X46850Y34510D01*
G01X46296Y34510D01*
G37*
G36*
G01X44335Y32910D02*
G01X44335Y33815D01*
G01X44889Y33815D01*
G01X44889Y32910D01*
G01X44335Y32910D01*
G37*
G36*
G01X44985Y32910D02*
G01X44985Y33815D01*
G01X45539Y33815D01*
G01X45539Y32910D01*
G01X44985Y32910D01*
G37*
G36*
G01X45646Y32910D02*
G01X45646Y33815D01*
G01X46200Y33815D01*
G01X46200Y32910D01*
G01X45646Y32910D01*
G37*
G36*
G01X46296Y32910D02*
G01X46296Y33815D01*
G01X46850Y33815D01*
G01X46850Y32910D01*
G01X46296Y32910D01*
G37*
G36*
G01X23322Y66611D02*
G01X23322Y68262D01*
G01X24683Y68262D01*
G01X24683Y66611D01*
G01X23322Y66611D01*
G37*
G36*
G01X25354Y66611D02*
G01X25354Y68262D01*
G01X26715Y68262D01*
G01X26715Y66611D01*
G01X25354Y66611D01*
G37*
G36*
G01X23322Y60515D02*
G01X23322Y62166D01*
G01X24683Y62166D01*
G01X24683Y60515D01*
G01X23322Y60515D01*
G37*
G36*
G01X25354Y60515D02*
G01X25354Y62166D01*
G01X26715Y62166D01*
G01X26715Y60515D01*
G01X25354Y60515D01*
G37*
G36*
G01X59476Y20881D02*
G01X59476Y23464D01*
G01X63967Y23464D01*
G01X63967Y20881D01*
G01X59476Y20881D01*
G37*
G36*
G01X59476Y15902D02*
G01X59476Y18486D01*
G01X63967Y18486D01*
G01X63967Y15902D01*
G01X59476Y15902D01*
G37*
G36*
G01X59476Y31295D02*
G01X59476Y33878D01*
G01X63967Y33878D01*
G01X63967Y31295D01*
G01X59476Y31295D01*
G37*
G36*
G01X59476Y26316D02*
G01X59476Y28900D01*
G01X63967Y28900D01*
G01X63967Y26316D01*
G01X59476Y26316D01*
G37*
G36*
G01X59476Y10467D02*
G01X59476Y13050D01*
G01X63967Y13050D01*
G01X63967Y10467D01*
G01X59476Y10467D01*
G37*
G36*
G01X59476Y5488D02*
G01X59476Y8072D01*
G01X63967Y8072D01*
G01X63967Y5488D01*
G01X59476Y5488D01*
G37*
G36*
G01X1821Y26316D02*
G01X1821Y28900D01*
G01X6309Y28900D01*
G01X6309Y26316D01*
G01X1821Y26316D01*
G37*
G36*
G01X1821Y31295D02*
G01X1821Y33878D01*
G01X6309Y33878D01*
G01X6309Y31295D01*
G01X1821Y31295D01*
G37*
G36*
G01X1821Y15902D02*
G01X1821Y18486D01*
G01X6309Y18486D01*
G01X6309Y15902D01*
G01X1821Y15902D01*
G37*
G36*
G01X1821Y20881D02*
G01X1821Y23464D01*
G01X6309Y23464D01*
G01X6309Y20881D01*
G01X1821Y20881D01*
G37*
G36*
G01X1821Y5488D02*
G01X1821Y8072D01*
G01X6309Y8072D01*
G01X6309Y5488D01*
G01X1821Y5488D01*
G37*
G36*
G01X1821Y10467D02*
G01X1821Y13050D01*
G01X6309Y13050D01*
G01X6309Y10467D01*
G01X1821Y10467D01*
G37*
G54D50*
G01X62074Y53595D03*
G01X59534Y53595D03*
G01X56994Y53595D03*
G01X54454Y53595D03*
G01X51914Y53595D03*
G01X49374Y53595D03*
G01X46834Y53595D03*
G01X44294Y53595D03*
G01X41754Y53595D03*
G01X39214Y53595D03*
G01X36674Y53595D03*
G01X34134Y53595D03*
G01X31594Y53595D03*
G01X29054Y53595D03*
G01X23974Y53595D03*
G01X21434Y53595D03*
G01X18894Y53595D03*
G01X16354Y53595D03*
G01X29054Y38355D03*
G01X31594Y38355D03*
G01X34134Y38355D03*
G01X36674Y38355D03*
G01X39214Y38355D03*
G01X41754Y38355D03*
G01X44294Y38355D03*
G01X46834Y38355D03*
G01X49374Y38355D03*
G01X51914Y38355D03*
G01X54454Y38355D03*
G01X56994Y38355D03*
G01X59534Y38355D03*
G01X62074Y38355D03*
G01X59534Y40895D03*
G01X54454Y40895D03*
G01X51914Y40895D03*
G01X49374Y40895D03*
G01X26514Y53595D03*
G01X16354Y38355D03*
G01X18894Y38355D03*
G01X21434Y38355D03*
G01X23974Y38355D03*
G01X26514Y38355D03*
G01X13814Y53595D03*
G01X11274Y53595D03*
G01X8734Y53595D03*
G01X6194Y53595D03*
G01X3654Y53595D03*
G01X3654Y38355D03*
G01X13814Y38355D03*
G01X11274Y38355D03*
G01X8734Y38355D03*
G01X6194Y38355D03*
M00*
M02*
