G04 Layer: BottomSolderMaskLayer*
G04 EasyEDA v6.4.5, 2020-09-03T12:26:06--7:00*
G04 e5bad7cf5beb4b60abe831444af73797,95dd31e7bbc04d03a1fa04b442bf807f,10*
G04 Gerber Generator version 0.2*
G04 Scale: 100 percent, Rotated: No, Reflected: No *
G04 Dimensions in millimeters *
G04 leading zeros omitted , absolute positions ,3 integer and 3 decimal *
%FSLAX33Y33*%
%MOMM*%
G90*
G71D02*

%ADD43C,2.082800*%
%ADD50C,1.676400*%

%LPD*%
G54D43*
G01X31115Y7620D03*
G01X31115Y5080D03*
G01X31115Y2540D03*
G01X34544Y7620D03*
G01X34544Y5080D03*
G01X34544Y2540D03*
G01X56769Y58039D03*
G01X59309Y58039D03*
G01X61849Y58039D03*
G36*
G01X42400Y33154D02*
G01X42400Y34356D01*
G01X43705Y34356D01*
G01X43705Y33154D01*
G01X42400Y33154D01*
G37*
G36*
G01X42400Y34554D02*
G01X42400Y35755D01*
G01X43705Y35755D01*
G01X43705Y34554D01*
G01X42400Y34554D01*
G37*
G36*
G01X45854Y35669D02*
G01X45854Y36974D01*
G01X47056Y36974D01*
G01X47056Y35669D01*
G01X45854Y35669D01*
G37*
G36*
G01X47254Y35669D02*
G01X47254Y36974D01*
G01X48455Y36974D01*
G01X48455Y35669D01*
G01X47254Y35669D01*
G37*
G36*
G01X56578Y21671D02*
G01X56578Y23032D01*
G01X58229Y23032D01*
G01X58229Y21671D01*
G01X56578Y21671D01*
G37*
G36*
G01X56578Y23703D02*
G01X56578Y25064D01*
G01X58229Y25064D01*
G01X58229Y23703D01*
G01X56578Y23703D01*
G37*
G36*
G01X55199Y32194D02*
G01X55199Y33845D01*
G01X56560Y33845D01*
G01X56560Y32194D01*
G01X55199Y32194D01*
G37*
G36*
G01X57231Y32194D02*
G01X57231Y33845D01*
G01X58592Y33845D01*
G01X58592Y32194D01*
G01X57231Y32194D01*
G37*
G36*
G01X55199Y5397D02*
G01X55199Y7048D01*
G01X56560Y7048D01*
G01X56560Y5397D01*
G01X55199Y5397D01*
G37*
G36*
G01X57231Y5397D02*
G01X57231Y7048D01*
G01X58592Y7048D01*
G01X58592Y5397D01*
G01X57231Y5397D01*
G37*
G36*
G01X37292Y17980D02*
G01X37292Y24183D01*
G01X40495Y24183D01*
G01X40495Y17980D01*
G01X37292Y17980D01*
G37*
G36*
G01X25290Y17980D02*
G01X25290Y24183D01*
G01X28493Y24183D01*
G01X28493Y17980D01*
G01X25290Y17980D01*
G37*
G36*
G01X56705Y16337D02*
G01X56705Y17698D01*
G01X58356Y17698D01*
G01X58356Y16337D01*
G01X56705Y16337D01*
G37*
G36*
G01X56705Y14305D02*
G01X56705Y15666D01*
G01X58356Y15666D01*
G01X58356Y14305D01*
G01X56705Y14305D01*
G37*
G36*
G01X55199Y26352D02*
G01X55199Y28003D01*
G01X56560Y28003D01*
G01X56560Y26352D01*
G01X55199Y26352D01*
G37*
G36*
G01X57231Y26352D02*
G01X57231Y28003D01*
G01X58592Y28003D01*
G01X58592Y26352D01*
G01X57231Y26352D01*
G37*
G36*
G01X57231Y11493D02*
G01X57231Y13144D01*
G01X58592Y13144D01*
G01X58592Y11493D01*
G01X57231Y11493D01*
G37*
G36*
G01X55199Y11493D02*
G01X55199Y13144D01*
G01X56560Y13144D01*
G01X56560Y11493D01*
G01X55199Y11493D01*
G37*
G36*
G01X59476Y20881D02*
G01X59476Y23464D01*
G01X63967Y23464D01*
G01X63967Y20881D01*
G01X59476Y20881D01*
G37*
G36*
G01X59476Y15902D02*
G01X59476Y18486D01*
G01X63967Y18486D01*
G01X63967Y15902D01*
G01X59476Y15902D01*
G37*
G36*
G01X59476Y31295D02*
G01X59476Y33878D01*
G01X63967Y33878D01*
G01X63967Y31295D01*
G01X59476Y31295D01*
G37*
G36*
G01X59476Y26316D02*
G01X59476Y28900D01*
G01X63967Y28900D01*
G01X63967Y26316D01*
G01X59476Y26316D01*
G37*
G36*
G01X59476Y10467D02*
G01X59476Y13050D01*
G01X63967Y13050D01*
G01X63967Y10467D01*
G01X59476Y10467D01*
G37*
G36*
G01X59476Y5488D02*
G01X59476Y8072D01*
G01X63967Y8072D01*
G01X63967Y5488D01*
G01X59476Y5488D01*
G37*
G36*
G01X1821Y26316D02*
G01X1821Y28900D01*
G01X6309Y28900D01*
G01X6309Y26316D01*
G01X1821Y26316D01*
G37*
G36*
G01X1821Y31295D02*
G01X1821Y33878D01*
G01X6309Y33878D01*
G01X6309Y31295D01*
G01X1821Y31295D01*
G37*
G36*
G01X1821Y15902D02*
G01X1821Y18486D01*
G01X6309Y18486D01*
G01X6309Y15902D01*
G01X1821Y15902D01*
G37*
G36*
G01X1821Y20881D02*
G01X1821Y23464D01*
G01X6309Y23464D01*
G01X6309Y20881D01*
G01X1821Y20881D01*
G37*
G36*
G01X1821Y5488D02*
G01X1821Y8072D01*
G01X6309Y8072D01*
G01X6309Y5488D01*
G01X1821Y5488D01*
G37*
G36*
G01X1821Y10467D02*
G01X1821Y13050D01*
G01X6309Y13050D01*
G01X6309Y10467D01*
G01X1821Y10467D01*
G37*
G36*
G01X59070Y19232D02*
G01X59070Y20137D01*
G01X60523Y20137D01*
G01X60523Y19232D01*
G01X59070Y19232D01*
G37*
G36*
G01X56570Y20182D02*
G01X56570Y21087D01*
G01X58023Y21087D01*
G01X58023Y20182D01*
G01X56570Y20182D01*
G37*
G36*
G01X56570Y18282D02*
G01X56570Y19187D01*
G01X58023Y19187D01*
G01X58023Y18282D01*
G01X56570Y18282D01*
G37*
G36*
G01X58943Y8818D02*
G01X58943Y9723D01*
G01X60396Y9723D01*
G01X60396Y8818D01*
G01X58943Y8818D01*
G37*
G36*
G01X56443Y9768D02*
G01X56443Y10673D01*
G01X57896Y10673D01*
G01X57896Y9768D01*
G01X56443Y9768D01*
G37*
G36*
G01X56443Y7868D02*
G01X56443Y8773D01*
G01X57896Y8773D01*
G01X57896Y7868D01*
G01X56443Y7868D01*
G37*
G36*
G01X59070Y29646D02*
G01X59070Y30551D01*
G01X60523Y30551D01*
G01X60523Y29646D01*
G01X59070Y29646D01*
G37*
G36*
G01X56570Y30596D02*
G01X56570Y31501D01*
G01X58023Y31501D01*
G01X58023Y30596D01*
G01X56570Y30596D01*
G37*
G36*
G01X56570Y28696D02*
G01X56570Y29601D01*
G01X58023Y29601D01*
G01X58023Y28696D01*
G01X56570Y28696D01*
G37*
G54D50*
G01X62074Y53595D03*
G01X59534Y53595D03*
G01X56994Y53595D03*
G01X54454Y53595D03*
G01X51914Y53595D03*
G01X49374Y53595D03*
G01X46834Y53595D03*
G01X44294Y53595D03*
G01X41754Y53595D03*
G01X39214Y53595D03*
G01X36674Y53595D03*
G01X34134Y53595D03*
G01X31594Y53595D03*
G01X29054Y53595D03*
G01X23974Y53595D03*
G01X21434Y53595D03*
G01X18894Y53595D03*
G01X16354Y53595D03*
G01X29054Y38355D03*
G01X31594Y38355D03*
G01X34134Y38355D03*
G01X36674Y38355D03*
G01X39214Y38355D03*
G01X41754Y38355D03*
G01X44294Y38355D03*
G01X46834Y38355D03*
G01X49374Y38355D03*
G01X51914Y38355D03*
G01X54454Y38355D03*
G01X56994Y38355D03*
G01X59534Y38355D03*
G01X62074Y38355D03*
G01X59534Y40895D03*
G01X54454Y40895D03*
G01X51914Y40895D03*
G01X49374Y40895D03*
G01X26514Y53595D03*
G01X16354Y38355D03*
G01X18894Y38355D03*
G01X21434Y38355D03*
G01X23974Y38355D03*
G01X26514Y38355D03*
G01X13814Y53595D03*
G01X11274Y53595D03*
G01X8734Y53595D03*
G01X6194Y53595D03*
G01X3654Y53595D03*
G01X3654Y38355D03*
G01X13814Y38355D03*
G01X11274Y38355D03*
G01X8734Y38355D03*
G01X6194Y38355D03*
M00*
M02*
