G04 Layer: BottomPasteMaskLayer*
G04 EasyEDA v6.4.5, 2020-09-03T12:26:06--7:00*
G04 e5bad7cf5beb4b60abe831444af73797,95dd31e7bbc04d03a1fa04b442bf807f,10*
G04 Gerber Generator version 0.2*
G04 Scale: 100 percent, Rotated: No, Reflected: No *
G04 Dimensions in millimeters *
G04 leading zeros omitted , absolute positions ,3 integer and 3 decimal *
%FSLAX33Y33*%
%MOMM*%
G90*
G71D02*


%LPD*%
G36*
G01X43602Y33255D02*
G01X43602Y34254D01*
G01X42502Y34254D01*
G01X42502Y33255D01*
G01X43602Y33255D01*
G37*
G36*
G01X43602Y34654D02*
G01X43602Y35654D01*
G01X42502Y35654D01*
G01X42502Y34654D01*
G01X43602Y34654D01*
G37*
G36*
G01X45955Y35772D02*
G01X46954Y35772D01*
G01X46954Y36872D01*
G01X45955Y36872D01*
G01X45955Y35772D01*
G37*
G36*
G01X47354Y35772D02*
G01X48354Y35772D01*
G01X48354Y36872D01*
G01X47354Y36872D01*
G01X47354Y35772D01*
G37*
G36*
G01X58128Y21771D02*
G01X58128Y22932D01*
G01X56679Y22932D01*
G01X56679Y21771D01*
G01X58128Y21771D01*
G37*
G36*
G01X58128Y23803D02*
G01X58128Y24964D01*
G01X56679Y24964D01*
G01X56679Y23803D01*
G01X58128Y23803D01*
G37*
G36*
G01X55299Y32295D02*
G01X56460Y32295D01*
G01X56460Y33744D01*
G01X55299Y33744D01*
G01X55299Y32295D01*
G37*
G36*
G01X57331Y32295D02*
G01X58492Y32295D01*
G01X58492Y33744D01*
G01X57331Y33744D01*
G01X57331Y32295D01*
G37*
G36*
G01X55299Y5498D02*
G01X56460Y5498D01*
G01X56460Y6947D01*
G01X55299Y6947D01*
G01X55299Y5498D01*
G37*
G36*
G01X57331Y5498D02*
G01X58492Y5498D01*
G01X58492Y6947D01*
G01X57331Y6947D01*
G01X57331Y5498D01*
G37*
G36*
G01X40392Y24081D02*
G01X37392Y24081D01*
G01X37392Y18082D01*
G01X40392Y18082D01*
G01X40392Y24081D01*
G37*
G36*
G01X28393Y24081D02*
G01X25393Y24081D01*
G01X25393Y18082D01*
G01X28393Y18082D01*
G01X28393Y24081D01*
G37*
G36*
G01X56806Y17598D02*
G01X56806Y16437D01*
G01X58255Y16437D01*
G01X58255Y17598D01*
G01X56806Y17598D01*
G37*
G36*
G01X56806Y15566D02*
G01X56806Y14405D01*
G01X58255Y14405D01*
G01X58255Y15566D01*
G01X56806Y15566D01*
G37*
G36*
G01X55299Y26453D02*
G01X56460Y26453D01*
G01X56460Y27902D01*
G01X55299Y27902D01*
G01X55299Y26453D01*
G37*
G36*
G01X57331Y26453D02*
G01X58492Y26453D01*
G01X58492Y27902D01*
G01X57331Y27902D01*
G01X57331Y26453D01*
G37*
G36*
G01X58492Y13043D02*
G01X57331Y13043D01*
G01X57331Y11594D01*
G01X58492Y11594D01*
G01X58492Y13043D01*
G37*
G36*
G01X56460Y13043D02*
G01X55299Y13043D01*
G01X55299Y11594D01*
G01X56460Y11594D01*
G01X56460Y13043D01*
G37*
G36*
G01X59171Y20035D02*
G01X59171Y19334D01*
G01X60421Y19334D01*
G01X60421Y20035D01*
G01X59171Y20035D01*
G37*
G36*
G01X56672Y20984D02*
G01X56672Y20284D01*
G01X57922Y20284D01*
G01X57922Y20984D01*
G01X56672Y20984D01*
G37*
G36*
G01X56672Y19085D02*
G01X56672Y18385D01*
G01X57922Y18385D01*
G01X57922Y19085D01*
G01X56672Y19085D01*
G37*
G36*
G01X59044Y9621D02*
G01X59044Y8920D01*
G01X60294Y8920D01*
G01X60294Y9621D01*
G01X59044Y9621D01*
G37*
G36*
G01X56545Y10570D02*
G01X56545Y9870D01*
G01X57795Y9870D01*
G01X57795Y10570D01*
G01X56545Y10570D01*
G37*
G36*
G01X56545Y8671D02*
G01X56545Y7971D01*
G01X57795Y7971D01*
G01X57795Y8671D01*
G01X56545Y8671D01*
G37*
G36*
G01X59171Y30449D02*
G01X59171Y29748D01*
G01X60421Y29748D01*
G01X60421Y30449D01*
G01X59171Y30449D01*
G37*
G36*
G01X56672Y31398D02*
G01X56672Y30698D01*
G01X57922Y30698D01*
G01X57922Y31398D01*
G01X56672Y31398D01*
G37*
G36*
G01X56672Y29499D02*
G01X56672Y28799D01*
G01X57922Y28799D01*
G01X57922Y29499D01*
G01X56672Y29499D01*
G37*
M00*
M02*
